<svg xmlns="http://www.w3.org/2000/svg" xmlns:xlink="http://www.w3.org/1999/xlink" width="1080" zoomAndPan="magnify" viewBox="0 0 810 809.999993" height="1080" preserveAspectRatio="xMidYMid meet" version="1.0"><defs><clipPath id="1f50a3365e"><path d="M 7 3 L 806 3 L 806 801.679688 L 7 801.679688 Z M 7 3 " clip-rule="nonzero"/></clipPath></defs><path fill="#183a98" d="M 802.996094 400.855469 C 802.984375 415.910156 802.148438 430.921875 800.480469 445.882812 C 797.003906 476.90625 789.929688 507.082031 779.257812 536.417969 C 777.53125 541.179688 775.710938 545.90625 773.804688 550.597656 C 771.894531 555.289062 769.894531 559.941406 767.808594 564.558594 C 765.722656 569.171875 763.546875 573.746094 761.285156 578.28125 C 759.023438 582.8125 756.675781 587.300781 754.242188 591.742188 C 751.808594 596.183594 749.292969 600.578125 746.691406 604.925781 C 744.089844 609.273438 741.40625 613.566406 738.644531 617.8125 C 735.878906 622.054688 733.03125 626.246094 730.105469 630.378906 C 727.183594 634.515625 724.179688 638.59375 721.097656 642.613281 C 718.015625 646.632812 714.859375 650.59375 711.628906 654.496094 C 708.394531 658.394531 705.089844 662.230469 701.710938 666.003906 C 698.332031 669.777344 694.882812 673.484375 691.359375 677.128906 C 687.839844 680.769531 684.25 684.34375 680.59375 687.847656 C 676.9375 691.351562 673.214844 694.785156 669.425781 698.148438 C 665.636719 701.507812 661.785156 704.796875 657.871094 708.011719 C 653.957031 711.230469 649.984375 714.367188 645.949219 717.429688 C 641.917969 720.496094 637.828125 723.480469 633.679688 726.386719 C 629.53125 729.292969 625.328125 732.121094 621.070312 734.867188 C 616.816406 737.613281 612.507812 740.277344 608.152344 742.859375 C 603.792969 745.441406 599.386719 747.9375 594.933594 750.351562 C 590.480469 752.765625 585.984375 755.09375 581.441406 757.335938 C 576.898438 759.578125 572.316406 761.730469 567.691406 763.796875 C 563.066406 765.863281 558.40625 767.84375 553.707031 769.730469 C 549.003906 771.621094 544.269531 773.417969 539.503906 775.125 C 534.734375 776.832031 529.933594 778.449219 525.105469 779.972656 C 520.273438 781.496094 515.414062 782.929688 510.53125 784.265625 C 505.644531 785.605469 500.734375 786.851562 495.804688 788 C 490.871094 789.152344 485.917969 790.207031 480.945312 791.167969 C 475.972656 792.132812 470.980469 792.996094 465.976562 793.769531 C 460.96875 794.539062 455.949219 795.214844 450.917969 795.792969 C 445.886719 796.375 440.84375 796.855469 435.796875 797.242188 C 430.746094 797.628906 425.6875 797.921875 420.628906 798.113281 C 415.566406 798.308594 410.503906 798.402344 405.4375 798.402344 C 400.371094 798.402344 395.308594 798.308594 390.246094 798.113281 C 385.1875 797.921875 380.128906 797.628906 375.078125 797.242188 C 370.027344 796.855469 364.988281 796.375 359.957031 795.792969 C 354.925781 795.214844 349.90625 794.539062 344.898438 793.769531 C 339.890625 792.996094 334.902344 792.132812 329.929688 791.167969 C 324.957031 790.207031 320.003906 789.152344 315.070312 788 C 310.136719 786.851562 305.230469 785.605469 300.34375 784.265625 C 295.460938 782.929688 290.601562 781.496094 285.769531 779.972656 C 280.941406 778.449219 276.140625 776.832031 271.371094 775.125 C 266.605469 773.417969 261.871094 771.621094 257.167969 769.730469 C 252.46875 767.84375 247.808594 765.863281 243.183594 763.796875 C 238.558594 761.730469 233.972656 759.578125 229.433594 757.335938 C 224.890625 755.09375 220.390625 752.765625 215.9375 750.351562 C 211.484375 747.9375 207.082031 745.441406 202.722656 742.859375 C 198.363281 740.277344 194.058594 737.613281 189.800781 734.867188 C 185.546875 732.121094 181.34375 729.292969 177.195312 726.386719 C 173.046875 723.480469 168.957031 720.496094 164.921875 717.429688 C 160.890625 714.367188 156.914062 711.230469 153 708.011719 C 149.085938 704.796875 145.234375 701.507812 141.449219 698.148438 C 137.660156 694.785156 133.9375 691.351562 130.28125 687.847656 C 126.621094 684.34375 123.035156 680.769531 119.511719 677.128906 C 115.992188 673.484375 112.542969 669.777344 109.164062 666.003906 C 105.785156 662.230469 102.480469 658.394531 99.246094 654.496094 C 96.015625 650.59375 92.859375 646.632812 89.777344 642.613281 C 86.695312 638.59375 83.691406 634.515625 80.765625 630.378906 C 77.84375 626.246094 74.996094 622.054688 72.230469 617.8125 C 69.464844 613.566406 66.785156 609.273438 64.183594 604.925781 C 61.582031 600.578125 59.0625 596.183594 56.632812 591.742188 C 54.199219 587.300781 51.851562 582.8125 49.589844 578.28125 C 47.328125 573.746094 45.152344 569.171875 43.066406 564.558594 C 40.980469 559.941406 38.980469 555.289062 37.070312 550.597656 C 35.164062 545.90625 33.34375 541.179688 31.613281 536.417969 C 20.945312 507.082031 13.871094 476.90625 10.394531 445.882812 C 8.726562 430.921875 7.886719 415.910156 7.878906 400.855469 C 7.867188 390.796875 8.238281 380.753906 8.988281 370.726562 C 9.742188 360.695312 10.875 350.710938 12.390625 340.769531 C 13.902344 330.824219 15.792969 320.957031 18.058594 311.15625 C 20.324219 301.359375 22.957031 291.660156 25.960938 282.0625 C 28.964844 272.460938 32.328125 262.992188 36.054688 253.648438 C 39.777344 244.308594 43.851562 235.121094 48.277344 226.089844 C 52.699219 217.058594 57.460938 208.207031 62.558594 199.539062 C 67.65625 190.867188 73.078125 182.40625 78.820312 174.148438 C 83.367188 167.578125 88.105469 161.152344 93.039062 154.867188 C 97.976562 148.585938 103.09375 142.457031 108.402344 136.484375 C 113.707031 130.507812 119.1875 124.703125 124.84375 119.058594 C 130.5 113.417969 136.320312 107.949219 142.308594 102.660156 C 148.296875 97.371094 154.4375 92.265625 160.730469 87.34375 C 167.027344 82.425781 173.464844 77.703125 180.046875 73.171875 C 186.628906 68.640625 193.339844 64.316406 200.183594 60.191406 C 207.023438 56.066406 213.984375 52.152344 221.066406 48.449219 C 228.144531 44.746094 235.328125 41.261719 242.617188 37.992188 C 249.90625 34.722656 257.289062 31.675781 264.765625 28.851562 C 272.238281 26.03125 279.789062 23.4375 287.421875 21.070312 C 295.050781 18.703125 302.746094 16.570312 310.507812 14.667969 C 318.269531 12.769531 326.078125 11.105469 333.9375 9.675781 C 341.800781 8.246094 349.695312 7.054688 357.628906 6.105469 C 365.5625 5.152344 373.515625 4.441406 381.488281 3.972656 C 389.464844 3.5 397.449219 3.273438 405.4375 3.285156 C 411.46875 3.28125 417.496094 3.414062 423.523438 3.6875 C 429.546875 3.957031 435.5625 4.367188 441.570312 4.910156 C 447.578125 5.457031 453.566406 6.136719 459.542969 6.957031 C 465.519531 7.773438 471.472656 8.726562 477.40625 9.816406 C 483.339844 10.90625 489.242188 12.128906 495.121094 13.488281 C 500.996094 14.84375 506.839844 16.335938 512.648438 17.960938 C 518.457031 19.582031 524.222656 21.339844 529.953125 23.226562 C 535.683594 25.113281 541.363281 27.128906 547 29.273438 C 552.640625 31.421875 558.222656 33.691406 563.757812 36.09375 C 569.289062 38.492188 574.765625 41.015625 580.183594 43.667969 C 585.605469 46.316406 590.960938 49.085938 596.25 51.980469 C 601.542969 54.875 606.765625 57.886719 611.921875 61.015625 C 617.078125 64.148438 622.160156 67.394531 627.167969 70.757812 C 632.171875 74.117188 637.101562 77.59375 641.949219 81.179688 C 646.800781 84.765625 651.566406 88.460938 656.246094 92.265625 C 660.925781 96.070312 665.519531 99.976562 670.019531 103.992188 C 674.523438 108.003906 678.933594 112.117188 683.25 116.332031 C 687.5625 120.542969 691.78125 124.855469 695.902344 129.261719 C 700.019531 133.664062 704.039062 138.164062 707.953125 142.75 C 711.867188 147.339844 715.675781 152.015625 719.375 156.777344 C 723.078125 161.539062 726.667969 166.382812 730.148438 171.308594 C 733.628906 176.234375 736.996094 181.238281 740.25 186.316406 C 743.503906 191.394531 746.640625 196.546875 749.660156 201.765625 C 752.679688 206.988281 755.578125 212.277344 758.355469 217.628906 C 761.132812 222.984375 763.789062 228.398438 766.320312 233.871094 C 768.851562 239.347656 771.253906 244.875 773.535156 250.460938 C 775.816406 256.046875 777.964844 261.679688 779.988281 267.359375 C 782.011719 273.042969 783.90625 278.769531 785.667969 284.535156 C 787.429688 290.304688 789.0625 296.109375 790.558594 301.953125 C 792.058594 307.796875 793.421875 313.667969 794.652344 319.574219 C 795.882812 325.480469 796.976562 331.410156 797.9375 337.363281 C 798.898438 343.316406 799.722656 349.289062 800.414062 355.28125 C 802.132812 370.425781 802.996094 385.617188 802.996094 400.855469 Z M 802.996094 400.855469 " fill-opacity="1" fill-rule="nonzero"/><path fill="#ffffff" d="M 732.464844 627.019531 C 720.480469 644.292969 707.214844 660.523438 692.671875 675.703125 C 678.128906 690.886719 662.484375 704.835938 645.742188 717.550781 L 165.132812 717.550781 C 148.390625 704.835938 132.746094 690.886719 118.203125 675.703125 C 103.660156 660.523438 90.394531 644.292969 78.410156 627.019531 Z M 732.464844 627.019531 " fill-opacity="1" fill-rule="nonzero"/><path fill="#ffffff" d="M 800.414062 355.28125 L 488.691406 355.28125 L 488.691406 264.75 L 779.054688 264.75 C 789.738281 294.085938 796.855469 324.265625 800.414062 355.28125 Z M 800.414062 355.28125 " fill-opacity="1" fill-rule="nonzero"/><path fill="#ffffff" d="M 732.054688 174.148438 L 488.691406 174.148438 L 488.691406 83.613281 L 645.0625 83.613281 C 661.855469 96.316406 677.546875 110.261719 692.136719 125.445312 C 706.726562 140.628906 720.03125 156.863281 732.054688 174.148438 Z M 732.054688 174.148438 " fill-opacity="1" fill-rule="nonzero"/><path fill="#ffffff" d="M 800.480469 445.882812 C 797.003906 476.90625 789.929688 507.082031 779.257812 536.417969 L 31.613281 536.417969 C 20.945312 507.082031 13.871094 476.90625 10.394531 445.882812 L 193.359375 445.882812 L 193.359375 264.75 L 31.820312 264.75 C 43.5625 232.515625 59.230469 202.3125 78.820312 174.148438 L 193.359375 174.148438 L 193.359375 64.5 C 208.671875 54.84375 224.570312 46.269531 241.046875 38.777344 C 257.527344 31.28125 274.4375 24.9375 291.78125 19.746094 L 291.78125 174.148438 L 488.691406 174.148438 L 488.691406 264.75 L 291.78125 264.75 L 291.78125 445.882812 Z M 800.480469 445.882812 " fill-opacity="1" fill-rule="nonzero"/><g clip-path="url(#1f50a3365e)"><path fill="#e6e6e6" d="M 405.4375 801.625 C 397.191406 801.609375 388.953125 801.339844 380.722656 800.816406 C 372.496094 800.292969 364.289062 799.511719 356.109375 798.476562 C 347.929688 797.445312 339.789062 796.160156 331.6875 794.621094 C 323.585938 793.082031 315.539062 791.292969 307.550781 789.257812 C 299.558594 787.21875 291.640625 784.9375 283.789062 782.40625 C 275.941406 779.878906 268.179688 777.109375 260.503906 774.101562 C 252.824219 771.089844 245.25 767.847656 237.773438 764.367188 C 230.296875 760.886719 222.9375 757.179688 215.691406 753.242188 C 208.445312 749.304688 201.328125 745.148438 194.339844 740.773438 C 187.351562 736.394531 180.507812 731.804688 173.800781 727.003906 C 167.097656 722.199219 160.550781 717.195312 154.15625 711.988281 C 147.765625 706.777344 141.539062 701.378906 135.480469 695.785156 C 129.421875 690.1875 123.542969 684.414062 117.84375 678.453125 C 112.144531 672.496094 106.632812 666.367188 101.3125 660.066406 C 95.992188 653.765625 90.875 647.304688 85.953125 640.6875 C 81.035156 634.070312 76.324219 627.304688 71.824219 620.394531 C 67.328125 613.484375 63.042969 606.441406 58.980469 599.265625 C 54.917969 592.089844 51.082031 584.796875 47.46875 577.382812 C 43.859375 569.96875 40.480469 562.453125 37.335938 554.828125 C 34.191406 547.207031 31.285156 539.492188 28.621094 531.691406 C 25.953125 523.886719 23.53125 516.007812 21.355469 508.054688 C 19.175781 500.101562 17.246094 492.089844 15.566406 484.015625 C 13.886719 475.941406 12.457031 467.824219 11.277344 459.664062 C 10.101562 451.503906 9.175781 443.3125 8.507812 435.09375 C 7.835938 426.875 7.421875 418.640625 7.265625 410.398438 C 7.105469 402.152344 7.199219 393.910156 7.554688 385.671875 C 7.90625 377.433594 8.511719 369.214844 9.371094 361.011719 C 10.234375 352.8125 11.347656 344.644531 12.71875 336.515625 C 14.085938 328.382812 15.703125 320.300781 17.574219 312.269531 C 19.441406 304.238281 21.558594 296.273438 23.921875 288.371094 C 26.285156 280.472656 28.890625 272.652344 31.738281 264.914062 C 34.585938 257.175781 37.667969 249.53125 40.992188 241.984375 C 44.3125 234.4375 47.867188 227 51.648438 219.671875 C 55.433594 212.34375 59.4375 205.140625 63.667969 198.0625 C 67.898438 190.984375 72.34375 184.042969 77.003906 177.242188 C 81.664062 170.4375 86.527344 163.785156 91.601562 157.285156 C 96.675781 150.78125 101.941406 144.445312 107.410156 138.269531 C 112.875 132.097656 118.527344 126.097656 124.363281 120.273438 C 130.203125 114.449219 136.214844 108.8125 142.402344 103.359375 C 148.589844 97.910156 154.9375 92.65625 161.453125 87.597656 C 167.964844 82.539062 174.628906 77.6875 181.441406 73.042969 C 188.253906 68.402344 195.207031 63.972656 202.292969 59.757812 C 209.382812 55.546875 216.59375 51.554688 223.929688 47.789062 C 231.265625 44.023438 238.710938 40.488281 246.265625 37.183594 C 253.824219 33.882812 261.472656 30.816406 269.21875 27.984375 C 276.960938 25.15625 284.789062 22.566406 292.695312 20.222656 C 300.597656 17.878906 308.570312 15.78125 316.605469 13.929688 C 324.640625 12.082031 332.726562 10.480469 340.863281 9.132812 C 348.996094 7.785156 357.164062 6.6875 365.367188 5.847656 C 373.570312 5.003906 381.792969 4.417969 390.03125 4.085938 C 398.269531 3.753906 406.511719 3.675781 414.757812 3.855469 C 423 4.035156 431.230469 4.46875 439.449219 5.15625 C 447.664062 5.84375 455.851562 6.789062 464.011719 7.984375 C 472.167969 9.183594 480.28125 10.628906 488.351562 12.332031 C 496.421875 14.03125 504.429688 15.980469 512.378906 18.175781 C 520.324219 20.371094 528.195312 22.8125 535.992188 25.496094 C 543.789062 28.183594 551.496094 31.105469 559.113281 34.269531 C 566.726562 37.433594 574.238281 40.828125 581.640625 44.457031 C 589.046875 48.085938 596.332031 51.9375 603.496094 56.019531 C 610.664062 60.097656 617.695312 64.398438 624.59375 68.914062 C 631.492188 73.429688 638.246094 78.15625 644.851562 83.089844 C 651.460938 88.027344 657.90625 93.160156 664.195312 98.496094 C 670.480469 103.832031 676.597656 109.355469 682.542969 115.070312 C 688.488281 120.785156 694.25 126.675781 699.832031 132.75 C 705.410156 138.820312 710.796875 145.058594 715.988281 151.464844 C 721.183594 157.871094 726.171875 164.429688 730.957031 171.144531 C 735.742188 177.859375 740.316406 184.714844 744.679688 191.714844 C 749.039062 198.714844 753.179688 205.839844 757.097656 213.097656 C 761.015625 220.351562 764.707031 227.722656 768.167969 235.203125 C 771.632812 242.6875 774.859375 250.273438 777.851562 257.957031 C 780.839844 265.640625 783.59375 273.410156 786.101562 281.265625 C 788.613281 289.121094 790.875 297.046875 792.894531 305.042969 C 794.914062 313.035156 796.683594 321.085938 798.203125 329.191406 C 799.71875 337.296875 800.988281 345.441406 802 353.625 C 803.015625 361.808594 803.777344 370.015625 804.28125 378.246094 C 804.785156 386.476562 805.035156 394.714844 805.03125 402.960938 C 805.023438 411.207031 804.765625 419.445312 804.246094 427.675781 C 803.730469 435.90625 802.960938 444.113281 801.933594 452.292969 C 800.910156 460.476562 799.632812 468.617188 798.101562 476.722656 C 796.570312 484.824219 794.792969 492.871094 792.761719 500.863281 C 790.734375 508.855469 788.457031 516.777344 785.9375 524.628906 C 783.417969 532.480469 780.65625 540.246094 777.65625 547.929688 C 774.652344 555.609375 771.414062 563.1875 767.945312 570.667969 C 764.472656 578.148438 760.769531 585.511719 756.84375 592.761719 C 752.914062 600.011719 748.765625 607.132812 744.394531 614.125 C 740.023438 621.117188 735.441406 627.96875 730.644531 634.679688 C 725.851562 641.386719 720.851562 647.941406 715.652344 654.339844 C 710.449219 660.738281 705.054688 666.96875 699.464844 673.03125 C 693.878906 679.097656 688.109375 684.980469 682.15625 690.6875 C 676.203125 696.394531 670.078125 701.910156 663.785156 707.238281 C 657.488281 712.5625 651.035156 717.691406 644.421875 722.617188 C 637.808594 727.542969 631.050781 732.257812 624.144531 736.765625 C 617.238281 741.273438 610.203125 745.5625 603.03125 749.632812 C 595.859375 753.703125 588.570312 757.546875 581.160156 761.164062 C 573.75 764.785156 566.234375 768.167969 558.617188 771.320312 C 550.996094 774.472656 543.285156 777.386719 535.484375 780.0625 C 514.558594 787.234375 493.183594 792.628906 471.359375 796.25 C 449.53125 799.867188 427.558594 801.660156 405.4375 801.625 Z M 405.4375 6.550781 C 397.515625 6.546875 389.597656 6.785156 381.691406 7.261719 C 373.78125 7.738281 365.894531 8.449219 358.027344 9.402344 C 350.164062 10.355469 342.332031 11.542969 334.539062 12.964844 C 326.746094 14.390625 319 16.046875 311.304688 17.9375 C 303.613281 19.828125 295.980469 21.949219 288.414062 24.296875 C 280.847656 26.648438 273.359375 29.226562 265.949219 32.027344 C 258.539062 34.828125 251.21875 37.851562 243.988281 41.097656 C 236.761719 44.339844 229.636719 47.796875 222.617188 51.472656 C 215.597656 55.144531 208.691406 59.023438 201.90625 63.113281 C 195.121094 67.203125 188.464844 71.492188 181.9375 75.984375 C 175.40625 80.476562 169.023438 85.160156 162.777344 90.035156 C 156.53125 94.910156 150.4375 99.96875 144.5 105.210938 C 138.558594 110.457031 132.78125 115.871094 127.167969 121.464844 C 121.554688 127.054688 116.113281 132.8125 110.847656 138.730469 C 105.582031 144.648438 100.496094 150.722656 95.597656 156.949219 C 90.695312 163.175781 85.988281 169.542969 81.472656 176.050781 C 77.890625 181.210938 74.433594 186.449219 71.105469 191.773438 C 67.773438 197.097656 64.570312 202.496094 61.5 207.972656 C 58.425781 213.449219 55.484375 218.996094 52.675781 224.609375 C 49.871094 230.226562 47.199219 235.90625 44.660156 241.652344 C 42.125 247.398438 39.726562 253.199219 37.46875 259.058594 C 35.210938 264.914062 33.09375 270.824219 31.117188 276.785156 C 29.140625 282.746094 27.304688 288.75 25.617188 294.796875 C 23.925781 300.84375 22.382812 306.929688 20.984375 313.050781 C 19.585938 319.171875 18.332031 325.324219 17.226562 331.503906 C 16.121094 337.6875 15.167969 343.890625 14.359375 350.117188 C 13.550781 356.34375 12.890625 362.585938 12.378906 368.84375 C 11.871094 375.105469 11.507812 381.371094 11.300781 387.648438 C 11.089844 393.921875 11.027344 400.199219 11.117188 406.476562 C 11.207031 412.757812 11.445312 419.03125 11.835938 425.296875 C 12.222656 431.5625 12.761719 437.820312 13.453125 444.058594 C 14.140625 450.300781 14.976562 456.523438 15.960938 462.722656 C 16.945312 468.925781 18.078125 475.101562 19.359375 481.246094 C 20.640625 487.394531 22.066406 493.507812 23.640625 499.585938 C 25.210938 505.667969 26.929688 511.703125 28.789062 517.703125 C 30.652344 523.699219 32.65625 529.648438 34.800781 535.550781 C 36.945312 541.449219 39.230469 547.296875 41.65625 553.089844 C 44.082031 558.882812 46.644531 564.613281 49.34375 570.28125 C 52.039062 575.953125 54.875 581.554688 57.839844 587.085938 C 60.804688 592.621094 63.902344 598.082031 67.128906 603.46875 C 70.359375 608.855469 73.710938 614.160156 77.195312 619.386719 C 80.675781 624.613281 84.277344 629.753906 88.003906 634.804688 C 91.730469 639.859375 95.578125 644.820312 99.539062 649.691406 C 103.503906 654.5625 107.582031 659.335938 111.773438 664.011719 C 115.964844 668.683594 120.265625 673.257812 124.675781 677.726562 C 129.089844 682.195312 133.601562 686.558594 138.222656 690.8125 C 142.839844 695.066406 147.558594 699.207031 152.375 703.234375 C 157.191406 707.261719 162.101562 711.175781 167.105469 714.96875 C 236.074219 767.410156 318.511719 795.160156 405.4375 795.160156 C 492.363281 795.160156 574.800781 767.410156 643.769531 714.96875 C 649.804688 710.394531 655.707031 705.648438 661.46875 700.734375 C 667.230469 695.816406 672.847656 690.742188 678.316406 685.5 C 683.789062 680.261719 689.101562 674.871094 694.261719 669.324219 C 699.417969 663.777344 704.414062 658.089844 709.242188 652.253906 C 714.074219 646.421875 718.734375 640.453125 723.21875 634.351562 C 727.707031 628.246094 732.011719 622.019531 736.136719 615.667969 C 740.265625 609.316406 744.207031 602.851562 747.960938 596.273438 C 751.714844 589.695312 755.273438 583.015625 758.644531 576.230469 C 762.011719 569.445312 765.179688 562.570312 768.152344 555.605469 C 771.125 548.636719 773.894531 541.589844 776.457031 534.464844 C 779.023438 527.335938 781.382812 520.140625 783.53125 512.878906 C 785.679688 505.617188 787.621094 498.296875 789.347656 490.925781 C 791.078125 483.550781 792.589844 476.132812 793.890625 468.667969 C 795.191406 461.207031 796.273438 453.714844 797.140625 446.191406 C 798.007812 438.664062 798.660156 431.121094 799.089844 423.558594 C 799.523438 416 799.738281 408.429688 799.734375 400.855469 C 799.726562 385.75 798.863281 370.695312 797.148438 355.691406 C 795.320312 339.609375 792.507812 323.703125 788.707031 307.972656 C 784.910156 292.238281 780.15625 276.800781 774.445312 261.660156 C 768.734375 246.515625 762.109375 231.785156 754.574219 217.460938 C 747.039062 203.136719 738.648438 189.335938 729.402344 176.050781 C 717.484375 158.886719 704.285156 142.773438 689.808594 127.703125 C 675.335938 112.632812 659.761719 98.796875 643.089844 86.199219 C 574.1875 34.097656 492.023438 6.550781 405.4375 6.550781 Z M 405.4375 6.550781 " fill-opacity="1" fill-rule="nonzero"/></g></svg>