<svg xmlns="http://www.w3.org/2000/svg" xmlns:xlink="http://www.w3.org/1999/xlink" width="1080" zoomAndPan="magnify" viewBox="0 0 810 809.999993" height="1080" preserveAspectRatio="xMidYMid meet" version="1.0"><path fill="#018d46" d="M 294.324219 18.179688 L 294.324219 791.820312 C 273.953125 786.003906 254.167969 778.617188 234.972656 769.660156 C 97.765625 705.617188 2.699219 566.421875 2.699219 405 C 2.699219 243.578125 97.765625 104.382812 234.972656 40.339844 C 254.167969 31.382812 273.953125 23.996094 294.324219 18.179688 Z M 294.324219 18.179688 " fill-opacity="1" fill-rule="nonzero"/><path fill="#f3f6fd" d="M 621.726562 66.097656 L 621.726562 743.902344 C 614.628906 748.445312 607.394531 752.757812 600.023438 756.847656 C 592.652344 760.933594 585.160156 764.785156 577.546875 768.402344 C 569.933594 772.019531 562.214844 775.394531 554.386719 778.523438 C 546.5625 781.65625 538.648438 784.539062 530.640625 787.171875 C 522.636719 789.808594 514.554688 792.1875 506.398438 794.3125 C 498.242188 796.4375 490.027344 798.304688 481.753906 799.917969 C 473.480469 801.527344 465.164062 802.875 456.808594 803.960938 C 448.449219 805.046875 440.066406 805.871094 431.65625 806.433594 C 423.246094 806.992188 414.828125 807.289062 406.398438 807.316406 C 397.96875 807.347656 389.550781 807.117188 381.136719 806.617188 C 372.722656 806.117188 364.332031 805.355469 355.964844 804.332031 C 347.601562 803.304688 339.277344 802.019531 330.992188 800.46875 C 322.707031 798.921875 314.476562 797.113281 306.304688 795.046875 C 298.136719 792.980469 290.035156 790.660156 282.011719 788.085938 C 273.984375 785.511719 266.050781 782.6875 258.203125 779.613281 C 250.355469 776.539062 242.609375 773.222656 234.972656 769.660156 L 234.972656 40.339844 C 242.609375 36.777344 250.351562 33.457031 258.199219 30.382812 C 266.046875 27.304688 273.984375 24.480469 282.007812 21.902344 C 290.035156 19.324219 298.132812 17.003906 306.304688 14.9375 C 314.476562 12.871094 322.703125 11.058594 330.988281 9.511719 C 339.273438 7.960938 347.597656 6.671875 355.964844 5.644531 C 364.332031 4.617188 372.722656 3.855469 381.136719 3.355469 C 389.550781 2.859375 397.972656 2.625 406.398438 2.65625 C 414.828125 2.6875 423.246094 2.980469 431.65625 3.542969 C 440.066406 4.101562 448.453125 4.925781 456.8125 6.011719 C 465.167969 7.101562 473.484375 8.449219 481.757812 10.058594 C 490.03125 11.667969 498.246094 13.539062 506.402344 15.664062 C 514.558594 17.792969 522.640625 20.171875 530.644531 22.808594 C 538.652344 25.441406 546.566406 28.328125 554.394531 31.460938 C 562.21875 34.59375 569.9375 37.96875 577.550781 41.585938 C 585.164062 45.203125 592.652344 49.058594 600.023438 53.148438 C 607.394531 57.238281 614.628906 61.554688 621.726562 66.097656 Z M 621.726562 66.097656 " fill-opacity="1" fill-rule="nonzero"/><path fill="#cd222b" d="M 807.171875 405 C 807.171875 547.34375 733.238281 672.410156 621.726562 743.902344 C 606.6875 753.523438 591.082031 762.109375 574.902344 769.660156 L 574.902344 40.339844 C 591.082031 47.890625 606.6875 56.476562 621.726562 66.097656 C 733.238281 137.589844 807.171875 262.65625 807.171875 405 Z M 807.171875 405 " fill-opacity="1" fill-rule="nonzero"/><path fill="#e6e6e6" d="M 404.9375 809.9375 C 386.101562 809.949219 367.359375 808.660156 348.707031 806.066406 C 330.050781 803.476562 311.667969 799.605469 293.554688 794.457031 C 273.066406 788.558594 253.15625 781.128906 233.816406 772.164062 C 229.476562 770.140625 225.175781 768.039062 220.914062 765.863281 C 216.648438 763.6875 212.425781 761.433594 208.242188 759.105469 C 204.058594 756.78125 199.917969 754.378906 195.816406 751.90625 C 191.71875 749.433594 187.667969 746.886719 183.65625 744.269531 C 179.648438 741.652344 175.6875 738.964844 171.777344 736.207031 C 167.863281 733.449219 164 730.621094 160.1875 727.726562 C 156.375 724.832031 152.613281 721.871094 148.90625 718.84375 C 145.195312 715.816406 141.542969 712.722656 137.945312 709.566406 C 134.347656 706.40625 130.804688 703.1875 127.320312 699.90625 C 123.835938 696.621094 120.414062 693.277344 117.046875 689.875 C 113.679688 686.46875 110.378906 683.007812 107.132812 679.484375 C 103.890625 675.964844 100.710938 672.386719 97.59375 668.75 C 94.480469 665.117188 91.429688 661.429688 88.441406 657.6875 C 85.457031 653.945312 82.539062 650.152344 79.6875 646.304688 C 76.835938 642.460938 74.054688 638.5625 71.34375 634.621094 C 68.628906 630.675781 65.988281 626.683594 63.417969 622.644531 C 60.84375 618.609375 58.34375 614.527344 55.917969 610.398438 C 53.492188 606.273438 51.140625 602.105469 48.859375 597.894531 C 46.582031 593.683594 44.378906 589.4375 42.25 585.148438 C 40.121094 580.859375 38.070312 576.535156 36.09375 572.175781 C 34.117188 567.8125 32.222656 563.417969 30.402344 558.992188 C 28.582031 554.5625 26.84375 550.105469 25.179688 545.613281 C 23.519531 541.125 21.9375 536.605469 20.4375 532.0625 C 18.9375 527.515625 17.515625 522.945312 16.175781 518.347656 C 14.835938 513.753906 13.582031 509.132812 12.40625 504.492188 C 11.230469 499.851562 10.136719 495.191406 9.125 490.511719 C 8.117188 485.835938 7.1875 481.136719 6.34375 476.425781 C 5.5 471.714844 4.742188 466.988281 4.0625 462.25 C 3.386719 457.507812 2.796875 452.757812 2.289062 448 C 1.78125 443.238281 1.355469 438.472656 1.015625 433.695312 C 0.679688 428.921875 0.425781 424.140625 0.253906 419.355469 C 0.0859375 414.574219 0 409.789062 0 405 C 0 400.210938 0.0859375 395.425781 0.253906 390.644531 C 0.425781 385.859375 0.679688 381.078125 1.015625 376.304688 C 1.355469 371.527344 1.78125 366.761719 2.289062 362 C 2.796875 357.242188 3.386719 352.492188 4.066406 347.75 C 4.742188 343.011719 5.5 338.285156 6.34375 333.574219 C 7.1875 328.863281 8.117188 324.164062 9.125 319.488281 C 10.136719 314.808594 11.230469 310.148438 12.40625 305.507812 C 13.582031 300.867188 14.835938 296.246094 16.175781 291.652344 C 17.515625 287.054688 18.9375 282.484375 20.4375 277.9375 C 21.9375 273.394531 23.519531 268.875 25.179688 264.386719 C 26.84375 259.894531 28.582031 255.4375 30.402344 251.007812 C 32.222656 246.582031 34.117188 242.1875 36.09375 237.824219 C 38.070312 233.464844 40.121094 229.140625 42.25 224.851562 C 44.378906 220.5625 46.582031 216.316406 48.859375 212.105469 C 51.140625 207.894531 53.492188 203.726562 55.917969 199.601562 C 58.34375 195.472656 60.84375 191.390625 63.417969 187.351562 C 65.988281 183.316406 68.628906 179.324219 71.34375 175.378906 C 74.054688 171.4375 76.835938 167.539062 79.6875 163.695312 C 82.539062 159.847656 85.457031 156.054688 88.441406 152.3125 C 91.429688 148.570312 94.480469 144.882812 97.59375 141.25 C 100.710938 137.613281 103.890625 134.035156 107.132812 130.515625 C 110.378906 126.992188 113.679688 123.53125 117.046875 120.125 C 120.414062 116.722656 123.835938 113.378906 127.320312 110.09375 C 130.804688 106.8125 134.347656 103.589844 137.945312 100.433594 C 141.542969 97.277344 145.195312 94.183594 148.90625 91.15625 C 152.613281 88.128906 156.375 85.167969 160.1875 82.273438 C 164 79.378906 167.863281 76.550781 171.777344 73.792969 C 175.6875 71.035156 179.648438 68.347656 183.65625 65.730469 C 187.667969 63.113281 191.71875 60.566406 195.816406 58.09375 C 199.917969 55.621094 204.058594 53.21875 208.242188 50.894531 C 212.425781 48.566406 216.648438 46.316406 220.914062 44.136719 C 225.175781 41.960938 229.476562 39.859375 233.816406 37.835938 C 253.15625 28.871094 273.066406 21.441406 293.554688 15.542969 C 311.667969 10.394531 330.050781 6.523438 348.707031 3.929688 C 367.359375 1.339844 386.101562 0.0507812 404.9375 0.0625 C 414.546875 0.0390625 424.144531 0.359375 433.730469 1.023438 C 443.320312 1.683594 452.871094 2.691406 462.386719 4.039062 C 471.902344 5.390625 481.355469 7.078125 490.75 9.105469 C 500.144531 11.132812 509.453125 13.496094 518.679688 16.191406 C 527.902344 18.886719 537.019531 21.910156 546.027344 25.257812 C 555.035156 28.609375 563.910156 32.277344 572.652344 36.265625 C 581.398438 40.25 589.988281 44.546875 598.425781 49.148438 C 606.859375 53.753906 615.121094 58.652344 623.207031 63.847656 C 637.214844 72.847656 650.625 82.664062 663.433594 93.300781 C 676.242188 103.941406 688.355469 115.320312 699.773438 127.441406 C 711.191406 139.5625 721.824219 152.332031 731.679688 165.753906 C 741.535156 179.175781 750.53125 193.148438 758.675781 207.671875 C 762.859375 215.171875 766.800781 222.800781 770.5 230.554688 C 774.199219 238.308594 777.648438 246.171875 780.847656 254.144531 C 784.046875 262.117188 786.988281 270.183594 789.675781 278.34375 C 792.359375 286.503906 794.785156 294.742188 796.945312 303.054688 C 799.109375 311.371094 801.003906 319.742188 802.632812 328.179688 C 804.261719 336.613281 805.621094 345.089844 806.710938 353.613281 C 807.800781 362.132812 808.617188 370.679688 809.164062 379.253906 C 809.710938 387.828125 809.984375 396.410156 809.984375 405 C 809.984375 413.589844 809.710938 422.171875 809.164062 430.746094 C 808.617188 439.320312 807.800781 447.867188 806.710938 456.386719 C 805.621094 464.910156 804.261719 473.386719 802.632812 481.820312 C 801.003906 490.257812 799.109375 498.632812 796.945312 506.945312 C 794.785156 515.257812 792.359375 523.496094 789.675781 531.65625 C 786.988281 539.816406 784.046875 547.882812 780.847656 555.855469 C 777.648438 563.828125 774.199219 571.691406 770.5 579.445312 C 766.800781 587.199219 762.859375 594.828125 758.675781 602.328125 C 753.511719 611.546875 748 620.550781 742.136719 629.339844 C 736.273438 638.128906 730.074219 646.679688 723.546875 654.984375 C 717.015625 663.292969 710.175781 671.335938 703.019531 679.109375 C 695.867188 686.882812 688.417969 694.371094 680.683594 701.566406 C 672.945312 708.761719 664.941406 715.644531 656.667969 722.21875 C 648.394531 728.789062 639.878906 735.03125 631.121094 740.941406 C 622.363281 746.851562 613.386719 752.414062 604.195312 757.625 C 595.003906 762.835938 585.625 767.683594 576.058594 772.164062 C 562.703125 778.402344 549.050781 783.886719 535.097656 788.621094 C 521.140625 793.355469 506.96875 797.308594 492.578125 800.484375 C 478.1875 803.660156 463.667969 806.039062 449.015625 807.621094 C 434.367188 809.199219 419.671875 809.972656 404.9375 809.9375 Z M 404.9375 5.460938 C 390.398438 5.453125 375.90625 6.234375 361.453125 7.808594 C 347.003906 9.382812 332.679688 11.738281 318.488281 14.875 C 304.292969 18.011719 290.3125 21.914062 276.546875 26.578125 C 262.777344 31.242188 249.304688 36.644531 236.125 42.78125 C 95.964844 108.234375 5.394531 250.386719 5.394531 405 C 5.394531 559.613281 95.964844 701.765625 236.125 767.21875 C 243.710938 770.761719 251.402344 774.066406 259.195312 777.125 C 266.988281 780.183594 274.871094 782.996094 282.84375 785.558594 C 290.8125 788.121094 298.855469 790.429688 306.972656 792.488281 C 315.089844 794.542969 323.261719 796.34375 331.488281 797.882812 C 339.71875 799.425781 347.988281 800.707031 356.300781 801.730469 C 364.609375 802.75 372.941406 803.507812 381.300781 804.003906 C 389.660156 804.5 398.023438 804.734375 406.394531 804.703125 C 414.769531 804.671875 423.132812 804.378906 431.484375 803.820312 C 439.839844 803.261719 448.167969 802.441406 456.46875 801.363281 C 464.773438 800.28125 473.03125 798.9375 481.25 797.335938 C 489.46875 795.734375 497.628906 793.875 505.726562 791.757812 C 513.828125 789.640625 521.855469 787.273438 529.808594 784.652344 C 537.757812 782.03125 545.621094 779.164062 553.390625 776.046875 C 561.160156 772.929688 568.828125 769.570312 576.386719 765.972656 C 583.945312 762.371094 591.382812 758.539062 598.703125 754.472656 C 606.019531 750.402344 613.203125 746.109375 620.25 741.589844 C 735.617188 667.65625 804.476562 541.820312 804.476562 405 C 804.476562 268.179688 735.617188 142.34375 620.25 68.410156 C 612.273438 63.289062 604.121094 58.460938 595.796875 53.925781 C 587.472656 49.386719 579 45.15625 570.371094 41.222656 C 561.746094 37.292969 552.988281 33.675781 544.105469 30.375 C 535.21875 27.070312 526.226562 24.085938 517.128906 21.425781 C 508.027344 18.765625 498.847656 16.4375 489.578125 14.433594 C 480.3125 12.429688 470.988281 10.761719 461.605469 9.425781 C 452.21875 8.089844 442.796875 7.089844 433.339844 6.429688 C 423.882812 5.765625 414.414062 5.445312 404.9375 5.460938 Z M 404.9375 5.460938 " fill-opacity="1" fill-rule="nonzero"/></svg>